<?xml version="1.0" encoding="utf-8"?>
<!-- Generator: Adobe Illustrator 23.0.2, SVG Export Plug-In . SVG Version: 6.00 Build 0)  -->
<svg version="1.1" id="Layer_1" xmlns="http://www.w3.org/2000/svg" xmlns:xlink="http://www.w3.org/1999/xlink" x="0px" y="0px"
	 viewBox="0 0 512.4 260" style="enable-background:new 0 0 512.4 260;" xml:space="preserve">
<style type="text/css">
	.st0{fill:#202020;}
</style>
<title>border_5</title>
<path class="st0" d="M497.8,254.5c5.4-0.3-2.9-1.3,3.5-0.6C500.4,254.7,499,254.9,497.8,254.5z"/>
<path d="M503.2,233.9c-3.8-17.3,0-40.1-2.4-59.1c-0.2-2.2,2.1,0.6,1.6-4.4c-3-18.4-1.2-47.4,1.1-69.8l0.6,1.3
	c0.4-4.3-1.5-9.5-1.2-14c0.4,0,0.5,1.4,1.1,0.4c-1.2-1.1-0.5-8.2-1.4-10.1c0.5-1.8,1.4-1.6,1.9-3.9l-1.4-2.6
	c-3.2-7.2,0.2-17.5-1.4-27.3c0.3,0.5,0.6,1.5,0.9,0.7c-0.6-5.1-1-10.6-1.3-16.4l-0.2-4.4l-0.1-4.3c-0.1-2.8-0.1-5.6-0.2-8.4
	l-9.1,0.2L487,12l-4.7,0.2c0.7-0.5,1.4-1.3,0.3-1.9c-0.9,1.4-6.3,1.8-11,2.1c-2.1-1.5-8.1,1.3-13.6,0.5l0.5-0.3
	c-4.1,1.5-6.1-0.9-9.4,0.9l-2.6-1.1c-1.8,2.1-5.9-1.1-9.3,0l0.1,0.4c-3.2,0.5-4.9-0.5-7.8-0.2l-0.3-0.2c-6.9,0.5-11-0.6-10.8,1
	c-2.4-1.3,6.7-0.6,2.9-2.4c-22.8,1.6-46.3,1.3-69.3,1.4c-2.6-0.6-4.3-0.8-4.9-1.4c-2.3,0.3-8.6,0.3-10.7,1.1c0.8,0-1.5-0.8-2.7-0.9
	c-4.2-0.6-4.6,1.8-9.1,1.1c1.8-0.4,2.5-1,1.8-1.5c-3.9,1.2-9.1,1.1-13.8,1.4c0.7-0.3,1.8-0.4,1.7-0.9c-5,1.4-9.2-0.3-13.6,0.6
	l1.7-0.9c-7.1-1.1-2.1,1.9-8.3,1.3c1.5-0.3,1-0.6,1.2-1c-5.8,1.7-15.1,1.1-20.8,1.7c0.3-0.1,0.2-0.4,0.2-0.4
	c-6.2,0.2-12.8-0.3-19.7,0.4c-2.5-0.4,0.8-2.3-5.8-1.9c0.2,1.9-11.2,0.8-7.3,2.9c-5.7-0.3-14.6-1-18.4-0.4c2.5-0.7-2.8-2.3,1.9-2.4
	l-3.6-1.2c0.5-0.8,3.6,0.3,2.5-0.7c-2.4,0.1-9.2,0.8-11.3,0.5c-4.4,1.1-8.4,3.3-15.4,3.5c3.3-0.7-1.9-2,0.4-2.4l-9.9,3.6
	c-2.4,0.1-0.5-1.5-3.9-1c0.2,0.5-1.3,0.8-2.3,1.2c-0.9-0.2-9.8,0.5-10.8-1.4c-1-0.7,3.8-0.4,1.2-1c-4.3,0-4.5,0.6-8.9,0.7l-0.1-0.2
	c-2.9-0.3-8.4,0.8-5.3,1.8c2,0.1-0.8-1.1,2.2-0.6c-2,1.1-7.1,1.4-11.4,1.4c1.5-0.3,1.3-0.8,1.9-1.3c-5.8,1.4-12,1.9-18.5,2.5
	c-0.1,0.9,2.4-1.6,3.4-1.1c-8.3-1.2-17.2,1.7-24.2,0c1.1-0.2,0.6,1.2,0.5,1c-4-0.1-3.8-1.4-6.5-0.9c-0.3-0.7-3.3,0.2-6,0.5
	c-1.4,0.5-0.7-0.4,1.6-0.4c-3.8,0.6-18.8,1.8-27.5,0.7c0.2,0.5-5.3,1.8-7.3,1.7l0.8-1.1c-1.8-0.7-6.7,0.1-7-0.9
	c-4.3,1.4,16.4-1.2,10.7-0.1c-1.5-1-8,1.8-6.8,0.3c-4,0-7.9,1.3-11.7,0.3c1.1,0.2,3.3-1.6,0-1.5c-5.7,0.2-1.6,0.6-6.2,0.9L43,16
	c-0.2,1.1-5.1-0.1-3,1.1c-0.7-0.9-8.3,0.6-7.7-1.3l0.8-1.4c-2.5,0.1-4,1.5-6,2.2c-0.3-0.1-1-0.4-0.9-0.7c-0.2,1.1-1.7,1.1-3.5,1
	c-0.9-0.1-1.9-0.1-2.8-0.1h-0.3h-0.2c-0.1,0-0.2,0.1-0.3,0.1c-0.2,0.1-0.4,0.3-0.5,0.5c-1.4-0.3-2.8-0.5-4.1-0.5
	c-0.1,1.3-0.3,2.5-1,2.9c0.5,1.3,0.8,2.7,0.9,4.1c0.3,2.1,0.3,4.2,0.1,6.3c-0.2-0.9-0.3-2.1-0.8-2.4c-0.7,2.9-0.1,3.5,0.3,6.2
	c-0.3-0.6-1.3,5.7-2.1,8.9c0.7,4,1.9,2.6,2.6,3c-2.2,3.6,1.4,11.1-0.6,15.7c-0.3-1.4-1.1-5.8-1.6-2.5c-2.2,3.6,1.6,7.3,0.6,13.1
	l1.8-1.4c-1.1,2.6,1.1,8.6-0.8,8c0.7,2-0.6,6.9,1.2,6.2c-1.5,9.6,0.9,23.3-2.3,29.1c0.3,1.4,0,4.8,0.9,4.1c1-2.3-0.7-3.2,0-4
	c0.1,1.2,0.5,1.5,0.8,1.6c-0.4,3-0.5,5.3-2,2.5c-1.1,6.6,3,6.8,2.3,15.2c-0.7-0.4-1,0.3-0.9,2.7l1.3,4.7c-0.3,5.4-1.7,3.1-2.9,3.2
	c0.2,2.9,0.1,6.5,1.1,7.8l-1.5,3.4c1.1-2.6,0.8,2.4,1.1,3.8l-0.3-1.4c-0.5,0.5-0.2,3.9,0,5.6c0.8-0.4,1.1-3.8,1.3-5.7
	c0.6,1.5,0.4,3.8,1.1,5.8c-1.2-0.6-0.9,4.7-1,7.1c-0.3,2.6,1.1,3,1,3.8c-0.6,0.1-0.1,4.3-1,2.3c-0.2-0.9,0.6-2.1,0.1-3.6
	c-0.5,1.8-1.6,1.6-0.8,5.2c0.6,2.7,2.4-0.7,1.6,4.5c-0.3-1.4-0.8-1.6-1.2-2.7l-0.6,4.9l1.1,0.2c-0.3,0.7-0.4,0.2-0.5,0.5
	c1.2,1.4,0.4,7.4,1.7,8.5c0.1,2.4-0.8,5.2-0.9,7.5l-0.1-0.4c-0.5,3-0.4,6.1,0.5,9.1l-0.2-0.1c-0.1,2.4,0.1,4.8,0.7,7.2
	c-0.8,4-4.2,1.3-2.8,5.7c0,4,2,6.3,2.8,4.7c-0.3,3.7-0.3,7.5,0,11.2c0,0.8,0.1,1.6,0.1,2.5c0,0.4,0,0.7,0,1.1
	c-0.1,0.9-0.4,1.8-0.7,2.6c0.4,0.1,0.7-0.4,1,0.1h0.1c1,0.1,2,0.1,3,0l0.8-0.1h0.2h0.5h1l4-0.1c5.3-0.1,10.3,0,14.5,1.1
	c-3.1,0.5-0.2,1.1-0.1,1.8c2.5-1,3,1,3.9-0.7c-0.2-1,0-1.5-3-1.9c6.3-0.5,15.9-0.5,19.4,0.4c-1.8-0.5-0.4-0.8,1-1.1
	c-0.5,1.6,4.2,1.8,7.7,1.3l0.5-1l2.3,1c1.3-0.3,1.5-2,5-1.1c0.2,0.5,0.5,0.8,1,1c3.6-0.8,8.8-2.2,12.7-1.3l3.2,1.4
	c1.7-0.2,4.5-1,1.6-1.4c6.7,0.9,11.1,1,13.2,2.2c11.6-3,28.4-3.1,41.9-2.9l-0.4,0.7c3.6,0.7,1.9-1.3,4.4-0.8
	c-1.2,0.7,2.8,1.5-0.1,2.4c5.2,0.8,6.7-1.3,10.1-1.6c0.5-1-2.7,0.6-2.1-0.6c0.6-0.3,7.2,0.8,8-0.7c1.3,0.6,0.3,1.6-0.4,2.2l3.2-0.7
	c3.9,1.7-8.8,3-4.8,5.1l2.9-0.2c2.8,1.5-7.7,1.7-0.4,2.2c3.2-0.7,5.9-2.8,3.1-3.5c6.6-0.4,3.1-3.5,10.2-3.4c1.9,0.9-5.7,0.2-4.3,1.4
	c3.4,1.2,6.7-0.6,9.7-0.2c-3.3-0.6-0.5-2,1.6-2.3c3.6,0.7-2.3,1.4,2.8,1.5c0.8-0.8,5.6-1.5,1.5-2.1c1.9-1.9,5.3,0.5,8.1-0.9
	c1.7,1.3-5.3,3.1,0.4,3.8c-0.9-1.3,6.9-1.8,4-3.7c2.2,0.4,2.4,1.4,0.8,2.2c3.1,0.8,7.6-2.4,8.7,0.2l1.1-1.3c1,0.4,2.4,0.8,4,1.5
	c2.8,0,9-1.8,8.7,0.2c0.9-0.2,7.2-0.1,4.8-1.5c-3.9-0.8-4.5,1-6.7-0.9c2.8,1.5,5.7-0.2,8-0.7l0.4,0.8c1.4-0.3,4.5-0.1,5.3-1
	c-1,0.4-0.5,1,0.6,1.1l1.4-1.2c5.5-0.6,1.3,2.1,6.7,1.7l-4.1,0.9c0.9-0.2,2.7,0.9,5.3,0.5c1-1.1,2.9-2.4,3.7-3.2
	c3-0.5,1.4,1.2,4.3,0.1l-3.9,1.3c-0.6,0.4,2.6,1.8,6.7,1.7c2.6-0.4,6.6-1.9,2.5-2.5c2,0,4.9,0.6,3.3,1.4c4.6-0.4-0.6-1.1,3.4-1.8
	c1.6,0.7,6.7,1.7,9.7,2.8l-4.2,1.8h2.8c-3.6,1.4,1.8,1.1-0.2,2.6c2,0.1,4-0.1,6-0.7c-5.5-2.4,6.2-3.3,4.6-5.5
	c7.5-0.6,4.7,5.4,12.6,1.9c-1.3-0.6,2.4-2.2-2.3-1.6c4.7,0.2,3.2-2.2,8.7-1.3c-4.1,0.9,4.4,2.2-1.5,3.6c0.4-0.7-3.3-0.6-4.2-0.4
	c1.9,0.9-0.4,2.2,4.4,2.2c2.9-0.2,6.9-0.2,6.4-1.4c-0.1-1.3-4.5,0.1-2.6-1.1c5.8-0.4,6.8,1.5,9.2-0.8c-3.7,0.2-4.6-1.1-4.5-2
	l4.3-0.5l-0.8,0.8c6.9,0.6,2-1.5,8.7-1.3l3.1,1.7c-1.6,1.4-9.7-0.6-8.5,1.7c4.3,0.1,5.8-1.1,9.8-0.5c-0.9,0.2-2.1,0.3-3,0.5
	c1.5,0.1,3.1,3.2,9.3,1.4c3.2-0.7,0.8-0.8,0.9-1.7c6.9-0.3,9-1.1,13.5-1.3c-0.9,1.7,7.9,0.2,3,1.9c-2.3-1-12.3-0.9-14.8,0.7
	c2.5,2-5.4-0.3-6.9,1.8c5.6,0,5.3,2,6.2,3.3c1.4,0,2.7-0.2,4-0.7c0.6-1.2-1.4-1.2-1.5-2.5c6.2,0.3,12.2-0.4,15.6-1.5
	c2.1,0.6,1.4,1.8-1,1.9c7.4-0.4,15.3-0.2,22.3,0.2c-4.5-2,7.8-0.5,4.7-2.1c-3.8-0.4-7-1.9-4.9-2.8c2.4,0.1-0.1,0.9,0.9,1.3
	c3-1.1,4.6,1.7,7.6,0c-6.7,0.6-1.3,2.4-2.5,4c4.9-0.9-0.2,1.1,4.6,1.1c5.4-0.9,10.8-1.5,16.2-1.9c6.8,1.5,17.1,0,23.2,0
	c3.2,0.8,1,2.6,4.5,2.9c4,0-3-1.9,3-1.1l-0.6,0.4c1.8-0.4,10.9,1.2,12.7-1.3l-1.8,1.9c1,0,2.1-0.1,3.1-0.5c0,0.6,1.4,1.2-0.5,1.6
	c3.7,1.3,7.7-0.2,11.7-0.3l-2.7-1.2c6.9-0.9,11.4,0.2,18-0.2l-0.2,1.1l3.9-0.7c-1,1.1,2.6,1.8,4.7,0.9l-10.2,2.7
	c-2.9-0.7,3.1-1.3,1.3-2.4c-1.5-1-7.6-0.7-8.6,0.4c1.4,0.1,2.9-0.1,4.3-0.5c0.8,1.5-2.8,1.5-4.5,2.5c1.2-0.1,3,0.4,3.2-0.1
	c-2.4,0.8-4.9,0.9-8.9,0.9c2.7-0.6-1.5-1-0.5-1.4c-0.3,1.4-4.2,1.8-9.1,1.4c-3.5-1.6-9.3,1-15.1,0.6c2.7-1.5,5.7-2.6,8.8-3
	c-3.6-0.7-4,0-7.6-0.7c-1.8,1-3,2.6-7.7,3.2l-0.3-1c-4.3,0.5-4.3,2-9.7,1.7c-9.3-0.5-18.9-0.5-26-0.6l-0.3-1
	c-4,2.2-13.2,0.8-18.5,1.8c-9.1-1-19.7,1-24.4-0.8c-16,0.8-30,1.5-46.6,1.2l2.8-1.5c-3,1.1-1.9-0.9-4.8-0.6c3.3,1.2-4,1.5-6.1,2.4
	c-7.4-1.1-16.9,0.1-23.4,1.1l-0.3-1c-6.6,1.9-14.5,0.2-22.8-0.1c-1.5-0.9-3.2-1.3-4.9-1.3c-4.5,1.6-6.8,1.5-13.4,2.6
	c-5.8,0-11.6-0.4-17.4-1c-18,2.3-36.4,0.8-55.1,2.2l-1.4-1.2c-18.1,2.5-40.5,0.2-56,1.5l1.5-2c-4.8-0.6-11.1,0.5-9.8,2
	c-4.9-0.6-12.2,1-15.2-0.7c-5-0.4-6.1,0.9-10.2,1.2c-7.7-0.6-15.4-0.7-23.1-0.2l2.3,0.1c1-0.5,1.1-1.3-1.2-1.4
	c-3.5,0.6-12.9-0.5-9.4,1.9c-4.9-0.5-9.8-0.6-14.7-0.3l-3.9,0.1l-6.5,0.1c-4.4,0-8.8,0-12.6-0.2c0.1-2.2,0.3-4.3,0.5-6.3
	c-0.7,1.9-0.8-2.3-1.2-4c0-2,0-4,0-6v-2.8l0.2-1.8c0.1-2.2,0.2-4.4,0.3-6.6c0.3-4,0.2-7.9-0.3-11.9c0.3-1.4,1.1,2.2,1.2-1.4
	c-0.3-2.1-0.9-0.1-1.2-2.7c-1.2-14.2,1.3-28.9,1-41.8c-1.4-23-0.7-47.1-0.9-69.1l0.5,0.3C-0.9,98.4,2.8,88.5,0,82.6
	c0.5-1.8,0.3-6.7,1.2-5.4c-1.3-5.9,1.2-16.5-0.4-25c0,0.7,0,1.4,0.2,2.1c1.1-8.6-0.4-16.2,0.6-25.2c0.2,0.9,0.4,2.6,0.9,2.9
	c0.5-1.8,0-3.8-0.4-5.7c-0.2-0.9-0.3-1.7-0.2-2.6c0-0.4,0.1-0.7,0.3-1.1c0.1-0.2,0.2-0.3,0.3-0.5c0-0.1,0.1-0.1,0.2-0.2l0.2-0.3
	c0-3.1-1.2-2.5-1.1-0.3C1.8,15.5,1.9,9.9,1.9,4h10.4h5.2l4.1-0.1c4.2-0.1,8.5-0.2,12.8-0.4C43,3.2,51.6,2.9,60.2,2.6
	C75,4,61.1,6.6,72.8,4.8c1,0.4,0.7-0.9,0.8-0.4c4.5-0.7,7,2.6,10.2,1.4C82.5,4.4,85.9,5,86,4.1c9,0.9,10.9,2.2,18,1.1L103.5,6
	c8.4-2.2,18.1-1,25.2-3.5c46.2-0.4,90.5-1.8,135.6-2.1c44.5,0.5,88.2-0.6,133.4,0.7c10.6,2,11.4,2,23,1.1c-0.5,0.3-1.2,0.4-0.4,0.7
	c0.6-1.6,8.2-0.2,9.3-1.7c16.7,0.3,32.1-0.1,49.3-0.2c-2.7,0.2-4.1,1.5-0.9,1.4l3.4-1l0.5,0.5c2.2-0.2,4.6-1,2.3-1.6l4.3-0.1h2.4
	h4.3L512.4,0c0,4.7,0,9.4,0,14.1V25c0,4.7-0.1,9.3-0.2,14c-0.2,9.3-0.5,18.6-0.7,27.8c-0.5,18.5-1,36.9-0.9,55.3
	c-0.7,10.1,0,24.4,0.3,35.3c-2.2,32.4-4,61.6-2.4,94.4C508.4,251.8,504.2,247.5,503.2,233.9z"/>
<path class="st0" d="M491.4,254.7c-1.1-0.8-4.9-1.3-1.9-2.4C489.8,253.1,491.8,253.9,491.4,254.7z"/>
<path class="st0" d="M390.8,246.2c-0.1,0.2-1.4-0.3-1.8-0.5c1.2-0.1,2.4-0.8,3.4-0.3C391.2,245.5,391.4,245.9,390.8,246.2z"/>
<path class="st0" d="M365.1,245.7c0.4-0.7,5.9-1.3,9.1-1.4L365.1,245.7z"/>
<path class="st0" d="M341.2,242.7c-2.1-0.6-1.5-1,1.3-0.9C342.7,242.2,341.8,242.4,341.2,242.7z"/>
<path class="st0" d="M339.5,244.4c-1.4,0-2.8-0.2-4-0.8C335.6,244.2,340.1,243.2,339.5,244.4z"/>
<path class="st0" d="M287.5,242.3c-1.2,0.1-4,0.7-5.1-0.1C283.7,242.7,288.4,241.2,287.5,242.3z"/>
<path class="st0" d="M263.3,243.4c-0.7-0.1-1.3-0.1-2,0c-1.4-0.3,0.1-0.9,1.3-0.9L263.3,243.4z"/>
<polygon class="st0" points="14.4,66.3 14.8,68.9 14.1,68.6 "/>
<path class="st0" d="M146.4,16.5c2.6-0.5,1.8,0.7,2.2,0.8C146.3,17.4,149.5,16.4,146.4,16.5z"/>
<polygon class="st0" points="250.3,12.8 249.5,12.9 249.8,11.4 "/>
</svg>
