<svg xmlns="http://www.w3.org/2000/svg" viewBox="0 0 512.41 260.04"><defs><style>.a{fill:#202020;}</style></defs><title>border_5</title><path class="a" d="M497.84,254.51c5.38-.34-2.9-1.28,3.52-.57A3.69,3.69,0,0,1,497.84,254.51Z"/><path class="a" d="M503.23,233.93c-3.82-17.32,0-40.15-2.4-59.13-.16-2.22,2.09.58,1.59-4.44-3-18.4-1.19-47.39,1.09-69.79l.59,1.35c.43-4.27-1.53-9.48-1.25-14,.39,0,.55,1.45,1.09.4-1.18-1.14-.55-8.18-1.43-10.1.47-1.78,1.4-1.61,1.92-3.92l-1.35-2.59c-3.19-7.19.23-17.48-1.43-27.3.32.48.56,1.45.86.67-.63-5.12-1-10.65-1.28-16.39l-.17-4.35L500.92,20c-.06-2.77-.13-5.56-.2-8.35l-9.09.2L487,12l-4.69.17c.71-.48,1.36-1.34.32-1.88-.86,1.42-6.31,1.78-11,2.06-2.13-1.46-8.1,1.32-13.65.52l.47-.32c-4.09,1.52-6.07-.88-9.39.95l-2.6-1.15c-1.8,2.05-5.93-1.06-9.31,0l.11.42c-3.19.5-4.85-.53-7.81-.18l-.28-.24c-6.94.54-11-.6-10.8,1-2.43-1.28,6.72-.59,2.91-2.45-22.81,1.65-46.32,1.33-69.27,1.36-2.61-.65-4.27-.84-4.85-1.45-2.29.32-8.64.3-10.73,1.11.77,0-1.48-.81-2.69-.9-4.18-.6-4.56,1.77-9.15,1.05,1.83-.43,2.45-1,1.84-1.54-3.92,1.25-9.14,1.05-13.77,1.45.72-.27,1.84-.43,1.66-.93-5.05,1.42-9.22-.3-13.65.6l1.66-.93c-7.14-1.12-2.11,1.94-8.28,1.27,1.48-.29,1-.65,1.23-1-5.75,1.68-15.06,1.13-20.81,1.7.34-.13.25-.38.25-.38-6.25.21-12.79-.32-19.67.42-2.5-.42.82-2.26-5.8-1.92.24,1.86-11.24.76-7.33,2.86-5.66-.3-14.61-1-18.37-.37,2.54-.7-2.76-2.26,1.94-2.42L221.88,9.7c.52-.76,3.65.26,2.53-.69-2.36.07-9.23.8-11.33.5-4.36,1.14-8.37,3.26-15.44,3.5,3.33-.72-1.89-2,.38-2.37l-9.86,3.56c-2.35.09-.51-1.47-3.91-1,.17.49-1.31.79-2.34,1.19-.88-.21-9.77.46-10.8-1.36-1-.72,3.83-.39,1.23-1-4.34,0-4.53.65-8.88.67l-.08-.24c-2.87-.27-8.45.78-5.33,1.79,2,.06-.76-1.1,2.19-.57-2,1.06-7.06,1.36-11.4,1.38,1.48-.3,1.3-.78,1.9-1.3-5.84,1.44-12,1.89-18.54,2.49-.1.87,2.43-1.58,3.39-1.12-8.35-1.2-17.25,1.71-24.2,0,1.14-.16.62,1.23.54,1-4-.11-3.84-1.37-6.46-.91-.26-.74-3.3.24-6,.46-1.4.54-.71-.36,1.64-.44-3.75.63-18.8,1.77-27.49.69.17.49-5.34,1.79-7.33,1.74l.78-1.15c-1.82-.68-6.69.1-7-.87-4.26,1.38,16.43-1.19,10.66-.11-1.49-1-8,1.82-6.79.26-4,0-7.9,1.33-11.74.26,1.12.18,3.26-1.59,0-1.51-5.7.21-1.62.55-6.25.93l-2.9.47c-.19,1.11-5.1-.15-3,1.09-.7-.91-8.29.57-7.7-1.28l.79-1.45c-2.46.11-4,1.53-6,2.18-.32-.14-1-.43-.85-.67-.2,1.11-1.67,1.07-3.46,1a23.5,23.5,0,0,0-2.8-.08l-.33,0-.16,0a1.66,1.66,0,0,0-.31.12,1,1,0,0,0-.46.47,17.82,17.82,0,0,0-4.15-.49c-.09,1.33-.26,2.47-1,2.93a17.32,17.32,0,0,1,.94,4.14,28.46,28.46,0,0,1,.06,6.28c-.21-.91-.27-2.14-.75-2.4-.66,2.85-.07,3.55.29,6.15-.33-.58-1.3,5.69-2.09,8.86.67,4,1.86,2.59,2.6,3-2.2,3.61,1.41,11.15-.58,15.67-.3-1.36-1.07-5.76-1.63-2.48-2.19,3.62,1.63,7.29.57,13.11l1.82-1.43c-1.13,2.59,1.06,8.57-.8,8,.66,2-.6,6.86,1.18,6.21-1.51,9.57.9,23.26-2.28,29.14.3,1.37,0,4.79.91,4.09,1-2.28-.71-3.18,0-4,.06,1.23.54,1.5.79,1.63-.41,3-.54,5.31-2,2.5-1.1,6.62,3,6.82,2.32,15.24-.73-.38-1,.26-.89,2.72l1.26,4.67c-.3,5.45-1.68,3.1-2.92,3.23.21,2.91.15,6.47,1.08,7.79L12,155.31c1.14-2.57.75,2.39,1.06,3.76l-.31-1.37c-.52.54-.2,3.9,0,5.6.77-.4,1.08-3.83,1.31-5.71.55,1.49.42,3.81,1.06,5.77-1.22-.65-.87,4.74-1,7.06-.27,2.65,1.09,3,1,3.76-.64.07-.11,4.33-1,2.26-.21-.9.61-2.06.06-3.56-.48,1.75-1.58,1.55-.78,5.17.61,2.74,2.42-.7,1.64,4.49-.3-1.37-.79-1.62-1.23-2.67l-.63,4.85,1.11.21c-.28.66-.38.2-.53.51,1.18,1.44.36,7.41,1.68,8.51.12,2.45-.77,5.16-.9,7.49l-.09-.44a19.41,19.41,0,0,0,.52,9.06l-.24-.13a25.15,25.15,0,0,0,.74,7.2c-.84,4-4.2,1.33-2.8,5.69,0,4,2,6.28,2.75,4.66a80.88,80.88,0,0,0,0,11.22c0,.83.05,1.65.07,2.47a8,8,0,0,1,0,1.09,10.74,10.74,0,0,1-.73,2.65c.43.09.7-.36,1,.1l.12,0a16.49,16.49,0,0,0,3,0l.76-.06.19,0h.5l1,0,4-.11c5.31-.11,10.34,0,14.55,1.09-3.07.47-.21,1.11-.14,1.75,2.52-1,3,1,3.94-.68-.25-1,0-1.49-3-1.9,6.3-.54,15.88-.54,19.38.4-1.75-.46-.4-.77,1-1.07-.46,1.6,4.19,1.84,7.7,1.28l.5-1,2.29,1c1.35-.31,1.49-2,5-1.1a1.85,1.85,0,0,0,1,1c3.64-.8,8.76-2.16,12.71-1.33l3.23,1.43c1.69-.16,4.53-1,1.56-1.43,6.73.86,11.07,1,13.21,2.2,11.6-3,28.44-3.13,41.92-2.91l-.39.73c3.62.68,1.88-1.28,4.41-.77-1.18.69,2.76,1.51-.09,2.37,5.18.77,6.68-1.27,10.05-1.6.51-1-2.71.61-2.06-.61.58-.34,7.17.75,8-.7,1.3.57.29,1.64-.41,2.23l3.16-.71c3.88,1.7-8.82,3-4.76,5.13l2.92-.23c2.79,1.53-7.72,1.72-.39,2.24,3.18-.71,5.9-2.82,3.06-3.46,6.62-.41,3.07-3.47,10.18-3.35,1.95.85-5.69.2-4.32,1.4,3.35,1.17,6.72-.65,9.7-.24-3.31-.55-.51-2,1.63-2.29,3.62.69-2.34,1.38,2.78,1.53.84-.84,5.56-1.47,1.48-2.05,1.86-1.9,5.34.52,8.13-.95,1.67,1.34-5.28,3.1.35,3.76-.89-1.29,6.95-1.75,4-3.67,2.21.38,2.44,1.39.83,2.18,3.15.8,7.65-2.35,8.69.21l1.08-1.32c1,.43,2.4.75,4,1.46,2.78,0,9-1.78,8.7.21.89-.21,7.24-.12,4.79-1.49-3.95-.84-4.53,1-6.73-.86,2.78,1.52,5.68-.2,8-.71l.37.77c1.36-.3,4.48-.13,5.33-1-1,.44-.5,1,.58,1.15l1.43-1.17c5.51-.59,1.29,2.06,6.66,1.72l-4.08.91c.9-.2,2.73.9,5.29.53,1-1.07,2.88-2.35,3.74-3.18,3-.47,1.35,1.2,4.33.11l-3.9,1.28c-.59.36,2.63,1.77,6.67,1.74,2.58-.37,6.59-1.91,2.51-2.5,2,0,4.87.64,3.26,1.42,4.59-.37-.6-1.15,3.36-1.82,1.62.72,6.67,1.73,9.71,2.77L278,246.54h2.75c-3.56,1.44,1.8,1.1-.2,2.61a19.07,19.07,0,0,0,6-.67c-5.49-2.42,6.16-3.31,4.56-5.52,7.53-.6,4.7,5.37,12.56,1.91-1.29-.57,2.41-2.25-2.33-1.62,4.68.25,3.18-2.21,8.7-1.3-4.09.91,4.39,2.24-1.52,3.56.4-.73-3.29-.56-4.2-.35,1.93.85-.4,2.22,4.39,2.22,2.92-.21,6.93-.25,6.35-1.4-.12-1.27-4.46.13-2.59-1.14,5.83-.45,6.8,1.48,9.21-.76-3.68.17-4.6-1.13-4.53-2l4.28-.52-.83.83c6.85.61,2-1.52,8.67-1.3l3.12,1.67c-1.59,1.42-9.67-.64-8.49,1.69,4.32.09,5.75-1.09,9.83-.49-.91.2-2.15.26-3.05.47,1.55.07,3.1,3.16,9.26,1.35,3.18-.7.84-.83.92-1.7,6.93-.26,9-1.15,13.47-1.28-.92,1.7,7.9.16,3,1.9-2.28-1-12.31-.9-14.77.72,2.53,2-5.44-.28-6.94,1.76,5.57,0,5.3,2,6.2,3.33a13.77,13.77,0,0,0,4-.66c.65-1.23-1.37-1.21-1.48-2.47,6.2.33,12.18-.35,15.6-1.54,2.08.61,1.42,1.83-1,1.94,7.38-.36,15.28-.19,22.29.18-4.53-2,7.82-.47,4.73-2.13-3.76-.45-7-1.87-4.92-2.76,2.35.12-.07.87.91,1.3,3-1.09,4.65,1.74,7.58,0-6.74.65-1.31,2.44-2.55,4,4.87-.88-.21,1.11,4.6,1.11a153.47,153.47,0,0,1,16.2-1.89c6.77,1.48,17.14,0,23.19,0,3.16.79,1,2.56,4.45,2.86,4,0-3-1.9,3-1.09l-.58.35c1.81-.41,10.94,1.2,12.7-1.34l-1.84,1.92a8.13,8.13,0,0,0,3.06-.47c.05.62,1.35,1.19-.47,1.6,3.68,1.32,7.73-.22,11.73-.27L460.32,250c6.85-.89,11.43.23,18.05-.16l-.19,1.11,3.94-.66c-1,1.07,2.65,1.76,4.73.86l-10.24,2.72c-2.85-.66,3.11-1.34,1.32-2.43-1.51-1-7.65-.66-8.64.41a10.72,10.72,0,0,0,4.28-.52c.78,1.54-2.78,1.48-4.55,2.51,1.23-.06,3,.41,3.24-.08-2.41.76-4.85.87-8.87.91,2.72-.6-1.48-1-.45-1.4-.32,1.36-4.16,1.78-9.13,1.4-3.55-1.57-9.34,1-15.1.58a25.19,25.19,0,0,1,8.82-3c-3.61-.69-4,0-7.64-.66-1.75,1-3,2.6-7.72,3.23l-.26-1c-4.28.52-4.28,2-9.72,1.74-9.32-.5-18.92-.5-26-.63l-.27-1c-4,2.17-13.2.8-18.52,1.76-9.08-1-19.7,1-24.35-.77-16,.77-30,1.54-46.58,1.17l2.79-1.48c-3,1.08-1.93-.85-4.84-.63,3.34,1.18-4,1.53-6.1,2.43-7.38-1.14-16.86.1-23.4,1.14l-.26-1c-6.61,1.91-14.51.24-22.75-.07a9.26,9.26,0,0,0-4.89-1.26c-4.47,1.64-6.81,1.52-13.36,2.55a160.08,160.08,0,0,1-17.42-1.05c-18,2.31-36.41.83-55.13,2.22l-1.35-1.19c-18.15,2.54-40.47.23-56,1.54l1.5-2c-4.85-.63-11.07.54-9.83,2-4.88-.62-12.16,1-15.25-.69-5-.37-6.09.94-10.23,1.22a155,155,0,0,0-23.06-.22l2.33.13c1-.45,1.12-1.31-1.22-1.44-3.5.56-12.88-.55-9.4,1.88a86.44,86.44,0,0,0-14.69-.27l-3.86.15-6.51.09c-4.44,0-8.79,0-12.6-.24.12-2.19.27-4.32.49-6.34-.67,1.91-.79-2.27-1.24-4,0-2,0-4,0-6l0-2.78L.37,239c.11-2.22.22-4.42.33-6.56a61.14,61.14,0,0,0-.31-11.88c.33-1.4,1.12,2.23,1.2-1.35-.26-2.12-.87-.05-1.24-2.66-1.24-14.25,1.27-28.87,1-41.83C0,151.7.67,127.66.45,105.57l.49.26C-.92,98.43,2.85,88.48,0,82.58.51,80.83.26,75.9,1.2,77.2c-1.31-5.89,1.25-16.49-.43-25A6.62,6.62,0,0,0,1,54.33c1.07-8.59-.4-16.18.57-25.25.21.92.37,2.59.85,2.86.47-1.75,0-3.83-.38-5.7a10.65,10.65,0,0,1-.23-2.61,3.06,3.06,0,0,1,.26-1.07,2.4,2.4,0,0,1,.27-.46c.05-.07.11-.13.17-.2l.21-.29c0-3.13-1.18-2.45-1.11-.34C1.8,15.52,1.89,9.86,1.92,4H12.29L17.5,4l4.08-.06c4.25-.09,8.54-.23,12.83-.38,8.59-.31,17.23-.7,25.77-.92,14.82,1.4.91,4,12.6,2.21,1,.45.69-.91.85-.42,4.52-.66,7,2.63,10.19,1.4C82.52,4.38,85.9,5,86,4.14c9,.94,10.87,2.24,18,1.14l-.53.77c8.38-2.15,18.09-1,25.16-3.48C174.87,2.12,219.17.74,264.24.46c44.54.47,88.16-.65,133.39.67,10.6,2,11.4,2,23,1.13-.47.33-1.2.4-.42.71.59-1.64,8.2-.16,9.31-1.72,16.73.3,32.13-.15,49.33-.16-2.72.18-4.08,1.52-.85,1.41l3.39-1,.55.45c2.21-.24,4.62-1,2.33-1.58l4.28-.12,2.35,0,4.28,0L512.39,0q0,7.07,0,14.12l0,10.91q-.06,7-.21,14c-.18,9.29-.45,18.56-.71,27.8-.53,18.49-1,36.9-.88,55.28-.68,10.05-.05,24.36.28,35.28-2.18,32.38-3.95,61.56-2.42,94.45C508.44,251.8,504.21,247.51,503.23,233.93Z"/><path class="a" d="M491.36,254.67c-1.15-.82-4.91-1.27-1.91-2.37C489.82,253.08,491.76,253.94,491.36,254.67Z"/><path class="a" d="M390.83,246.23c-.13.25-1.43-.33-1.75-.47,1.24-.06,2.4-.75,3.39-.32C391.21,245.5,391.41,245.89,390.83,246.23Z"/><path class="a" d="M365.13,245.74c.38-.73,5.89-1.3,9.13-1.39Z"/><path class="a" d="M341.18,242.74c-2.07-.62-1.5-1,1.29-.94C342.67,242.19,341.75,242.38,341.18,242.74Z"/><path class="a" d="M339.48,244.4a8.59,8.59,0,0,1-4-.83C335.61,244.19,340.14,243.18,339.48,244.4Z"/><path class="a" d="M287.48,242.28c-1.25.05-4,.66-5.12-.15C283.67,242.7,288.44,241.2,287.48,242.28Z"/><path class="a" d="M263.32,243.38a5.45,5.45,0,0,0-2,0c-1.43-.33.08-.87,1.29-.94Z"/><polygon class="a" points="14.41 66.33 14.77 68.94 14.05 68.55 14.41 66.33"/><path class="a" d="M146.37,16.48c2.61-.46,1.82.69,2.25.8C146.26,17.35,149.49,16.38,146.37,16.48Z"/><polygon class="a" points="250.3 12.84 249.51 12.86 249.78 11.37 250.3 12.84"/></svg>