<svg xmlns="http://www.w3.org/2000/svg" width="1246.32" height="243.94" viewBox="0 0 1246.32 243.94"><defs><style>.a{fill:none;stroke:#fff;stroke-linecap:round;stroke-linejoin:round;stroke-width:8px;}</style></defs><title>header_1</title><path class="a" d="M12.93,63.94s24.68,4.61,43.33-12.06C68.3,41.11,74,17.69,72.5,10.49S60.82-2.26,51.2,18.6,47,59.38,46.7,84.94c-.3,25.91-7.94,46.88-17.83,68S4,179.4,4,179.4"/><path class="a" d="M113.23,10.08s-14,47.33-18.3,76.41-10.42,75.31,5.65,92.33"/><path class="a" d="M13.35,105c-4-3.09-9.5-17.49,6.26-24.16,15.94-6.75,34.75-2.21,49.71,4.4s27.36,18,43.23,17.14,24-7.3,24-7.3"/><path class="a" d="M166.75,68.06c-27.79-1.12-32.4,36.41-33.36,49.53-1,13.59-2.7,54.73,26,55.06,25.42.29,28.87-41.62,30.39-62.18S185.63,68.83,166.75,68.06Z"/><path class="a" d="M160,69s-1.48,13.85,14.48,28.87,32.68,9.62,40.29,8,22.15-9,32-25.8,17.51-45.85,17.51-45.85"/><path class="a" d="M249.3,76.46S237.64,104.85,234,130.82s7.9,41.76,18,41.89,26.75-8.77,35.39-60.55"/><path class="a" d="M200.9,70.76s8.34-11.26,25.47-7.27,19.43,8,30.33,12.16,21.71,5.93,30.21,2.36"/><path class="a" d="M465,135c-17.46,20.08-41.91,29.5-54.7,33.11-16,4.52-39.82,9.07-49.81-12.26S358.49,88,377.25,50.07s32.47-29.63,19.47,13.6c-3.62,12-8.77,32.22-19.54,54.68s-29.4,52.9-60.14,52.87-34-44.61-28.59-65.33,14.64-31.84,25.35-32.46c6.05-1,24.42,6.91,1.87,25.23C298,113,288.27,110,288.27,110"/><path class="a" d="M576.89,11.38s-13.71,4.77-24.61,23.8-4.51,30.5,8.23,7.07S558.76,12.06,546.09,13c-34.69,2.44-55,50.22-60.84,106.1-5.94,56.32,33.09,66.6,65.71,41.74,22.77-17.35,32.52-26.49,46-47.36"/><path class="a" d="M634.7,84.36c-14.38-2-29.76,9.76-40.14,34.53s-15.25,54.09,1.35,55.18,26.9-30.08,34.15-47.37S647.48,86.12,634.7,84.36Z"/><path class="a" d="M638.83,104.53c-2.29,17.82-19,69.58,9.64,69.51,26.65-.06,48.1-52.72,62.19-105.58C724,18.37,709.85-18,691.74,33.83c-19.2,55-21,140.22,14.09,141.5,30.55,1.11,50.31-77.13,52.08-84.64"/><path class="a" d="M757.13,94.69c-2.64,27.67-6.55,71.72,10.14,79.16,16,7.14,41.49-12.25,57.11-38.44,21.5-36,27.34-82.11,29-95.18s4.16-52.7-27.09,5-35.1,138.46-20.1,172.15,32.49,27.74,25-5.38-32-48.72-32-48.72"/><line class="a" x1="766.21" y1="50.88" x2="764.18" y2="58.73"/><line class="a" x1="1133.47" y1="42.12" x2="1130.75" y2="49.76"/><path class="a" d="M802.92,164.84c10,5.24,22.72,2.53,36.22-11.19,8.4-8.54,15.84-18.74,25.5-40.31"/><path class="a" d="M893.06,82.52c17.49.61,17.47,23.68,15.75,42.6s-6.92,47.76-26.13,48S859,146.5,862.91,121.57C866.47,99.11,880,82.06,893.06,82.52Z"/><path class="a" d="M887.69,83.24s-5,33,14.2,40.32S944.7,104.22,949.19,82c0,0,19.56,8,36.31,5,0,0-14,5.84-27.29,43.35-9.59,27-3.94,43.06,6.48,43.14,14.25.11,23.9-16.35,31.83-34s7.39-20.51,17.32-44.61c9.57-23.25,23.63-10.77,19.27,1.7s-19.58,76.74-19.58,76.74"/><path class="a" d="M1030.5,106.5s11.94-28.08,30.34-27.6,20.63,9.16,14.72,38.9-12.52,56.61,2.15,56.55,34.8-56.74,44.71-92.74"/><path class="a" d="M1121.89,83.47c-18.38,61.82-9.05,88.86,6.45,89.22,12.84.31,18.41-31.37,18.41-31.37"/><path class="a" d="M1186.43,82c22.11,1.94,7.76,33.5-.24,54.39s-18.32,36.1-27.24,36.31c-12.39.29-20.31-16.42-4.14-58.29C1168.12,80,1186.43,82,1186.43,82Z"/><path class="a" d="M1196.51,107.31c-2.55,28.06-6.7,65.77,12.51,66.12s30-18.79,33.3-32.84"/></svg>